<svg version="1.1" xmlns="http://www.w3.org/2000/svg" xmlns:xlink="http://www.w3.org/1999/xlink" width="500.000000pt" height="500.000000pt" viewBox="0,0,256,256"><g fill="#ffffff" fill-rule="nonzero" stroke="none" stroke-width="1" stroke-linecap="butt" stroke-linejoin="miter" stroke-miterlimit="10" stroke-dasharray="" stroke-dashoffset="0" font-family="none" font-weight="none" font-size="none" text-anchor="none" style="mix-blend-mode: normal"><g transform="translate(0.384,-0.096) scale(0.512,0.512)"><g transform="translate(0,500) scale(0.1,-0.1)"><path d="M3121,4923c-217,-220 -565,-646 -797,-978c-307,-440 -579,-955 -705,-1335c-30,-92 -54,-151 -64,-161c-3,-4 -41,4 -83,18c-67,21 -91,24 -187,20c-133,-5 -185,-20 -296,-88c-148,-92 -175,-102 -270,-107c-103,-5 -130,3 -241,69c-113,69 -152,88 -217,109c-131,42 -208,32 -244,-29c-21,-36 -21,-44 -2,-86c19,-39 44,-51 131,-65c70,-11 153,-47 229,-100c25,-17 71,-43 103,-58c55,-26 63,-27 227,-27c186,0 191,2 320,83c137,87 156,95 247,100c108,6 176,-14 268,-77c139,-95 261,-130 414,-117c101,9 167,32 283,102c124,74 170,93 218,94c49,1 120,31 134,58c20,38 13,82 -18,113c-27,26 -36,29 -97,29c-93,0 -182,-29 -294,-96c-164,-98 -179,-104 -275,-104c-107,0 -155,17 -155,56c0,26 76,270 90,289c4,6 13,28 20,50c37,117 211,474 316,652c11,17 41,69 68,115c70,118 317,483 419,618c156,206 445,556 545,660l24,25l32,-36c17,-19 64,-73 105,-120c40,-46 84,-96 98,-112c43,-50 317,-395 353,-444c167,-230 286,-407 410,-613c87,-144 283,-517 308,-585c6,-16 28,-73 50,-125c41,-100 114,-314 132,-390c129,-532 97,-917 -106,-1300c-168,-315 -479,-592 -818,-725c-426,-167 -942,-128 -1339,102c-93,54 -248,163 -254,179c-13,34 164,127 276,145c86,13 121,39 121,88c0,101 -96,136 -246,90c-82,-25 -126,-47 -217,-106c-169,-110 -300,-110 -470,-1c-105,66 -167,94 -256,114c-159,36 -313,-2 -483,-118c-151,-103 -302,-101 -467,6c-131,85 -242,126 -345,126c-39,0 -53,-5 -76,-29c-35,-34 -45,-68 -31,-103c14,-38 45,-54 134,-73c85,-17 122,-33 266,-119c116,-68 167,-80 326,-74c135,6 162,15 344,122c108,63 171,80 263,70c79,-8 110,-21 218,-89c137,-86 168,-97 301,-104l115,-6l85,-78c237,-217 534,-356 914,-428c92,-17 417,-17 510,0c261,49 439,111 625,219c398,231 688,598 818,1038c50,169 57,227 57,504c0,259 -6,325 -46,500c-39,170 -123,434 -173,545c-8,17 -26,59 -41,95c-101,244 -337,661 -548,967c-225,327 -424,582 -679,868c-64,73 -142,155 -173,183c-49,45 -62,52 -97,52c-36,0 -46,-6 -107,-67z"></path><path d="M57,1962c-25,-11 -57,-62 -57,-92c0,-32 42,-78 78,-85c151,-32 177,-42 316,-128c115,-71 155,-82 306,-82c129,0 138,1 208,32c40,17 105,51 145,76c103,63 105,64 208,87c104,23 126,37 135,87c5,26 1,41 -17,68c-28,41 -62,50 -152,41c-96,-9 -147,-31 -315,-134c-92,-56 -145,-68 -259,-59c-68,5 -120,27 -219,93c-89,59 -182,92 -276,98c-46,3 -91,2 -101,-2z"></path><path d="M2385,1964c-56,-15 -118,-42 -188,-83c-43,-25 -98,-58 -123,-72c-25,-14 -78,-32 -117,-38c-130,-22 -167,-56 -147,-132c16,-59 44,-72 143,-67c98,6 162,29 309,116c62,36 130,68 171,78c64,17 70,17 134,0c75,-20 116,-39 203,-95c34,-22 93,-52 133,-68c65,-25 84,-28 197,-28c149,0 193,12 324,92c128,78 153,89 231,102c88,16 116,29 134,65c11,23 11,37 2,67c-18,60 -46,73 -144,66c-100,-8 -155,-28 -289,-108c-207,-124 -300,-129 -468,-26c-36,22 -79,48 -96,59c-85,51 -156,70 -274,73c-63,2 -124,2 -135,-1z"></path><path d="M64,1440c-28,-11 -64,-58 -64,-82c0,-24 24,-70 44,-87c9,-7 49,-17 90,-22c76,-8 127,-28 204,-81c102,-70 257,-128 343,-128c43,0 96,32 109,65c27,70 -24,129 -122,140c-72,8 -142,36 -225,93c-32,21 -77,49 -100,61c-82,41 -226,63 -279,41z"></path><path d="M1274,1443c-64,-12 -90,-111 -43,-159c18,-17 42,-26 95,-33c81,-12 144,-37 210,-82c61,-42 170,-94 224,-107c183,-44 306,-15 538,126c95,58 136,67 257,59c85,-6 132,-25 229,-90c85,-58 243,-117 314,-117c44,0 98,24 111,48c6,12 11,39 11,60c0,57 -38,88 -122,97c-68,7 -144,37 -213,84c-148,100 -280,133 -451,113c-106,-12 -186,-45 -334,-139c-73,-46 -78,-47 -167,-51c-51,-2 -108,-1 -127,2c-19,4 -81,35 -138,69c-151,91 -184,105 -278,116c-46,6 -87,10 -90,10c-3,-1 -15,-4 -26,-6z"></path></g></g></g></svg>