<svg version="1.1" xmlns="http://www.w3.org/2000/svg" xmlns:xlink="http://www.w3.org/1999/xlink" width="5000.000000pt" height="5000.000000pt" viewBox="0,0,256,256"><g fill="#ffffff" fill-rule="nonzero" stroke="none" stroke-width="1" stroke-linecap="butt" stroke-linejoin="miter" stroke-miterlimit="10" stroke-dasharray="" stroke-dashoffset="0" font-family="none" font-weight="none" font-size="none" text-anchor="none" style="mix-blend-mode: normal"><g transform="translate(0.128,-1.28154) scale(0.0512,0.0512)"><g transform="translate(0,5000) scale(0.1,-0.1)"><path d="M21510,42874c-8,-2 -204,-5 -435,-8c-231,-2 -438,-7 -460,-10c-22,-2 -76,-7 -120,-11c-85,-6 -138,-12 -195,-20c-19,-3 -60,-7 -90,-10c-30,-2 -71,-6 -90,-9c-79,-11 -257,-38 -280,-42c-110,-18 -220,-39 -323,-60c-67,-13 -134,-27 -149,-29c-39,-7 -238,-57 -393,-98c-794,-212 -1549,-536 -2275,-975c-1071,-648 -2042,-1579 -2737,-2622c-246,-371 -394,-625 -584,-1010c-241,-488 -446,-1023 -584,-1530c-14,-52 -34,-126 -45,-165c-11,-38 -28,-112 -40,-162c-11,-51 -29,-132 -39,-180c-18,-79 -33,-157 -63,-323c-12,-67 -12,-69 -32,-206c-9,-60 -18,-121 -20,-135c-3,-13 -8,-51 -11,-84c-4,-33 -9,-70 -11,-83c-1,-13 -5,-55 -9,-95c-4,-40 -8,-88 -10,-107c-2,-19 -7,-78 -11,-130c-4,-52 -8,-113 -10,-135c-2,-22 -6,-237 -8,-478c-2,-241 -6,-440 -8,-443c-3,-2 -47,-6 -99,-9c-52,-3 -121,-7 -154,-10c-122,-11 -181,-16 -205,-20c-14,-2 -53,-7 -87,-10c-34,-3 -71,-8 -82,-10c-11,-2 -71,-11 -133,-20c-169,-25 -511,-96 -670,-140c-844,-231 -1556,-577 -2243,-1090c-1051,-784 -1850,-1875 -2281,-3114c-30,-86 -61,-178 -68,-206c-8,-27 -27,-95 -44,-150c-65,-217 -132,-527 -171,-785c-28,-191 -38,-266 -46,-360c-3,-36 -8,-87 -10,-115c-3,-27 -7,-86 -10,-130c-6,-102 -6,-754 -1,-820c3,-27 8,-86 11,-130c4,-44 8,-93 10,-110c2,-16 7,-59 10,-95c9,-100 64,-441 91,-575c258,-1238 852,-2356 1734,-3259c541,-553 1128,-981 1812,-1319c327,-161 611,-272 1039,-406c150,-47 552,-142 699,-166c74,-11 377,-55 425,-60c28,-3 66,-8 85,-10c19,-2 94,-7 165,-10c72,-4 136,-8 143,-11c16,-5 21419,-4 21477,1c22,2 83,6 135,9c52,4 109,8 125,10c17,2 93,12 170,21c77,9 151,18 165,21c14,2 67,11 118,19c52,8 113,20 135,25c23,5 58,12 77,15c673,117 1722,538 2430,975c47,29 101,62 120,73c155,94 506,347 700,506c388,316 825,755 1136,1141c239,297 518,707 692,1022c101,181 226,425 290,568c88,196 165,385 227,555c26,72 51,134 55,139c9,9 63,-8 160,-52c162,-74 344,-164 413,-205c43,-26 81,-47 83,-47c10,0 275,-177 363,-242c233,-172 502,-430 672,-643c445,-557 677,-1154 754,-1943c14,-150 15,-541 1,-657c-8,-72 -19,-159 -21,-165c0,-3 -4,-26 -8,-51c-4,-25 -10,-59 -12,-75c-34,-207 -115,-473 -212,-698c-171,-395 -393,-718 -717,-1041c-551,-550 -1273,-936 -2116,-1130c-141,-33 -135,-32 -245,-51c-180,-31 -243,-40 -340,-50c-33,-3 -73,-8 -90,-10c-165,-19 -676,-26 -884,-11c-153,11 -224,18 -239,23c-8,2 -4121,4 -9140,4c-6653,0 -9138,-3 -9167,-11c-60,-17 -104,-42 -159,-90c-132,-117 -183,-295 -131,-465c38,-129 164,-253 295,-292c30,-8 2137,-11 11250,-15c3831,-1 6976,-5 6990,-9c26,-7 78,-12 260,-25c202,-15 845,-7 947,11c10,2 54,7 98,10c44,4 91,9 105,11c14,2 50,7 80,10c187,22 518,88 775,155c114,30 451,139 565,183c227,87 563,246 725,341c42,26 79,46 81,46c2,0 30,17 62,37c401,257 601,412 871,677c189,186 314,328 450,511c129,173 210,297 318,490c25,44 109,215 155,315c49,105 123,306 166,450c93,314 141,573 168,920c5,74 5,580 -1,645c-3,33 -8,87 -10,120c-27,294 -82,594 -167,900c-261,944 -864,1771 -1738,2382c-245,171 -509,319 -835,468c-74,34 -302,125 -313,125c-19,0 -30,23 -22,49c8,25 50,244 55,288c2,12 6,34 9,50c3,15 8,46 10,68c3,22 12,87 20,145c9,58 18,130 21,160c3,30 7,73 10,95c5,41 8,86 22,300c4,66 8,262 8,435c0,329 -8,513 -30,715c-3,28 -10,93 -15,145c-5,52 -14,127 -20,165c-6,39 -13,88 -16,110c-55,405 -187,938 -338,1365c-390,1102 -1000,2062 -1832,2880c-516,508 -994,867 -1634,1230c-126,71 -559,290 -574,290c-3,0 -35,14 -72,30c-191,88 -527,212 -781,290c-109,34 -212,65 -230,71c-18,5 -40,12 -50,14c-10,2 -83,20 -163,39c-80,20 -155,38 -168,41c-12,2 -30,6 -40,9c-26,8 -390,74 -447,81c-27,4 -79,11 -115,16c-36,6 -83,12 -105,15c-22,2 -60,6 -85,9c-25,3 -72,8 -105,11c-33,3 -78,7 -100,9c-271,27 -1076,27 -1260,0c-16,-2 -64,-7 -106,-10c-77,-5 -90,-7 -239,-25c-202,-26 -399,-60 -605,-105c-38,-8 -83,-18 -100,-21c-16,-3 -46,-9 -65,-14c-539,-133 -1022,-301 -1454,-504c-54,-26 -100,-45 -102,-43c-2,2 -6,25 -9,53c-3,27 -7,67 -10,89c-2,22 -7,67 -11,100c-3,33 -8,68 -10,79c-2,10 -6,44 -9,75c-4,31 -8,63 -10,71c-3,8 -7,33 -10,55c-107,731 -354,1563 -673,2270c-41,90 -256,521 -297,595c-402,722 -860,1337 -1430,1919c-695,710 -1465,1274 -2335,1710c-402,201 -741,342 -1160,481c-350,116 -582,178 -1030,275c-67,14 -323,60 -395,70c-22,4 -51,8 -65,11c-14,2 -81,11 -150,19c-69,8 -141,17 -160,19c-19,3 -69,8 -110,11c-41,4 -88,9 -105,11c-30,3 -102,8 -335,20c-69,3 -132,7 -140,8c-8,2 -22,1 -30,0zM21710,41986c36,-3 97,-8 135,-11c85,-6 178,-15 225,-20c19,-3 108,-14 197,-25c1055,-129 2107,-500 3081,-1087c154,-93 453,-297 627,-428c339,-256 567,-454 870,-759c432,-434 715,-791 1111,-1396c12,-19 62,-102 110,-185c309,-531 546,-1064 720,-1617c39,-126 112,-376 117,-404c2,-11 7,-30 10,-44c17,-63 66,-279 72,-310c3,-19 10,-54 16,-77c15,-68 78,-463 84,-528c3,-33 7,-69 10,-80c2,-11 6,-49 10,-85c3,-36 8,-83 10,-105c4,-42 13,-161 20,-260c10,-149 15,-369 16,-737c1,-221 6,-398 10,-398c5,0 46,23 92,52c45,28 114,70 152,93c39,23 120,73 180,110c61,37 171,104 245,148c74,44 164,98 200,119c202,122 738,364 1030,466c401,140 864,257 1220,307c19,2 83,11 143,20c59,8 138,18 175,21c37,2 81,7 97,9c202,27 1098,27 1205,0c8,-2 44,-6 80,-10c268,-25 742,-108 940,-165c19,-6 91,-26 160,-44c884,-242 1758,-700 2475,-1299c633,-529 1174,-1178 1563,-1877c13,-25 28,-49 32,-55c10,-13 192,-376 220,-440c12,-27 33,-75 47,-105c105,-232 247,-639 322,-922c12,-43 30,-111 40,-150c43,-161 120,-584 136,-743c6,-58 9,-90 20,-165c5,-36 9,-87 22,-275c15,-213 8,-849 -11,-965c-3,-14 -7,-61 -11,-104c-3,-43 -7,-82 -9,-85c-2,-3 -7,-44 -11,-91c-3,-46 -8,-87 -10,-90c-1,-3 -6,-30 -9,-61c-4,-31 -9,-67 -11,-80c-3,-13 -14,-75 -25,-137c-42,-236 -80,-385 -112,-446c-37,-73 -47,-107 -54,-206c-14,-167 -243,-773 -430,-1135c-138,-268 -132,-258 -244,-445c-586,-982 -1444,-1814 -2456,-2380c-113,-64 -422,-219 -529,-267c-222,-99 -499,-210 -695,-279c-334,-119 -824,-232 -1160,-269c-30,-3 -71,-8 -90,-10c-54,-7 -143,-14 -280,-22c-174,-11 -21223,-10 -21390,0c-74,5 -150,10 -168,12c-64,6 -158,16 -192,20c-19,3 -57,7 -85,11c-102,11 -331,52 -495,89c-292,64 -743,212 -997,326c-24,10 -64,29 -90,40c-764,342 -1486,894 -2039,1559c-679,818 -1124,1831 -1260,2868c-2,17 -6,47 -8,65c-3,17 -8,61 -11,97c-4,36 -8,79 -10,95c-26,205 -26,756 0,1010c2,22 7,65 10,95c3,30 7,69 10,85c2,17 7,53 10,80c35,299 127,696 241,1035c301,891 792,1662 1479,2321c664,636 1483,1104 2390,1364c152,44 506,120 645,140c59,8 99,14 130,20c14,2 57,7 95,11c39,3 79,8 89,10c11,2 58,6 105,10c48,3 111,7 141,9c30,3 274,4 543,5c486,0 490,0 489,30c0,14 -13,149 -16,180c-7,53 -16,149 -21,210c-3,30 -7,69 -9,86c-2,17 -8,76 -12,130c-4,55 -9,117 -11,139c-8,72 -10,837 -3,950c8,118 19,248 25,305c2,19 7,64 10,100c4,36 11,97 16,135c6,39 14,102 19,140c90,658 316,1444 592,2055c11,25 34,74 50,110c107,238 304,604 451,840c791,1268 1881,2264 3202,2926c168,85 276,133 590,269c76,32 347,129 518,185c316,102 725,203 1027,255c52,9 106,18 120,20c46,9 224,34 275,40c28,3 64,8 81,10c37,6 85,11 309,31c22,1 103,6 180,10c77,3 142,8 144,10c6,6 649,-3 731,-10z"></path><path d="M31730,16500l-8075,-5l-56,-21c-178,-68 -290,-237 -284,-431c6,-195 137,-358 330,-410c42,-11 1435,-13 8290,-13c8965,1 8314,5 8575,-51c773,-165 1429,-726 1651,-1414c31,-96 63,-241 74,-340c8,-66 8,-312 1,-323c-2,-4 -8,-35 -11,-67c-4,-33 -16,-97 -26,-142c-128,-544 -515,-1041 -1059,-1361c-47,-27 -103,-57 -125,-67c-78,-36 -174,-106 -210,-154c-68,-94 -89,-163 -87,-291c2,-244 222,-438 472,-416c84,7 129,23 259,93c318,169 539,332 792,583c170,169 266,283 381,450c288,419 452,868 493,1350c37,427 -59,907 -261,1313c-176,353 -396,639 -700,911c-374,334 -852,586 -1349,710c-141,35 -263,59 -365,71c-30,4 -64,9 -75,11c-42,8 -218,16 -385,17c-96,1 -3809,0 -8250,-3z"></path><path d="M34938,14385c-14,-12 -1226,-15 -7761,-17l-7422,-3l-66,-26c-121,-47 -206,-124 -253,-231c-106,-241 4,-506 250,-597l55,-21h7457c4101,0 7516,4 7587,8c213,11 514,6 700,-12c17,-2 64,-6 105,-10c227,-22 603,-94 832,-161c300,-88 603,-215 868,-365c109,-62 316,-205 436,-301c345,-278 684,-690 868,-1057c264,-526 347,-1052 256,-1620c-23,-139 -29,-167 -72,-327c-221,-818 -769,-1511 -1473,-1863c-244,-122 -506,-207 -750,-242c-44,-6 -91,-13 -104,-15c-119,-20 -401,-26 -576,-12c-184,14 -420,54 -546,93c-25,8 -54,16 -65,18c-83,18 -293,98 -460,176c-373,175 -738,494 -959,840c-168,263 -290,610 -323,920c-15,142 -7,537 14,643c2,12 6,39 9,62c20,141 85,385 146,550c55,148 67,198 64,281c-10,236 -196,414 -435,414c-139,0 -248,-49 -337,-150c-97,-111 -218,-487 -307,-955c-2,-12 -7,-48 -11,-80c-4,-33 -9,-69 -11,-80c-19,-103 -26,-585 -11,-740c123,-1234 931,-2221 2192,-2676c227,-83 467,-138 790,-184c196,-27 759,-28 902,-1c10,2 41,7 68,10c322,43 656,137 965,274c113,49 152,70 335,171c22,13 96,60 165,106c662,442 1186,1126 1472,1920c86,239 167,556 193,755c3,25 10,77 15,115c17,130 22,229 20,445c-1,118 -3,226 -4,240c-2,14 -7,57 -10,95c-66,669 -355,1330 -848,1943c-135,168 -460,492 -625,624c-297,236 -626,433 -1016,607c-110,49 -384,147 -552,197c-152,46 -450,118 -575,139c-90,16 -300,47 -340,51c-25,2 -55,6 -66,8c-12,2 -61,7 -110,11c-49,4 -102,9 -119,11c-16,3 -133,7 -260,10c-126,2 -244,6 -262,9c-17,2 -33,2 -35,0z"></path></g></g></g></svg>